<?xml version="1.0" encoding="iso-8859-1"?>
<!-- Generator: Adobe Illustrator 19.0.0, SVG Export Plug-In . SVG Version: 6.00 Build 0)  -->
<svg version="1.1" id="Layer_1" xmlns="http://www.w3.org/2000/svg" xmlns:xlink="http://www.w3.org/1999/xlink" x="0px" y="0px"
	 viewBox="0 0 512 512" style="enable-background:new 0 0 512 512;" xml:space="preserve" fill="#fff">
<g>
	<g>
		<path d="M504.161,378.976l-31.391-18.124c0.645-7.199,0.645-14.424,0-21.623l31.391-18.124c7.496-4.328,10.064-13.914,5.737-21.41
			l-35.373-61.268c-4.324-7.491-13.915-10.065-21.41-5.737l-31.394,18.126c-5.915-4.17-12.171-7.788-18.724-10.827v-36.235
			c0-8.656-7.018-15.673-15.673-15.673h-70.745c-8.656,0-15.674,7.018-15.674,15.673v36.233c-6.552,3.04-12.808,6.658-18.724,10.827
			l-31.394-18.126c-7.492-4.325-17.082-1.759-21.41,5.736l-35.373,61.268c-4.328,7.496-1.76,17.082,5.736,21.41l31.391,18.124
			c-0.645,7.199-0.645,14.424,0,21.623l-31.391,18.124c-7.491,4.324-10.064,13.915-5.737,21.41l35.373,61.268
			c4.328,7.496,13.914,10.065,21.41,5.736l31.394-18.125c5.915,4.17,12.171,7.788,18.724,10.827v36.236
			c0,8.656,7.018,15.673,15.673,15.673h70.745c8.656,0,15.673-7.018,15.673-15.673v-36.233c6.553-3.041,12.807-6.657,18.724-10.827
			l31.394,18.125c7.496,4.329,17.082,1.76,21.41-5.737l35.373-61.268C514.221,392.896,511.657,383.303,504.161,378.976z
			 M351.952,414.62c-35.609,0-64.579-28.97-64.579-64.579c0-35.609,28.97-64.579,64.579-64.579s64.579,28.97,64.579,64.579
			C416.531,385.65,387.561,414.62,351.952,414.62z"/>
	</g>
</g>
<g>
	<g>
		<path d="M252.444,151.787l-23.113-13.344c0.309-4.52,0.309-9.05,0-13.57l23.113-13.344c7.496-4.328,10.064-13.914,5.737-21.41
			l-28.045-48.576c-4.324-7.491-13.915-10.064-21.41-5.737L185.612,49.15c-3.762-2.536-7.683-4.803-11.752-6.796v-26.68
			C173.86,7.018,166.842,0,158.186,0h-56.09C93.44,0,86.423,7.018,86.423,15.674v26.678c-4.068,1.993-7.99,4.261-11.752,6.796
			L51.557,35.804c-7.49-4.324-17.083-1.76-21.41,5.736L2.102,90.116c-4.328,7.496-1.76,17.082,5.737,21.41l23.113,13.344
			c-0.309,4.52-0.309,9.05,0,13.57L7.839,151.785c-7.496,4.328-10.064,13.914-5.737,21.41l28.045,48.576
			c4.325,7.492,13.914,10.063,21.41,5.737l23.113-13.344c3.762,2.535,7.684,4.804,11.752,6.796v26.679
			c0,8.656,7.018,15.673,15.673,15.673h56.091c8.656,0,15.673-7.018,15.673-15.673v-26.679c4.068-1.993,7.989-4.26,11.752-6.796
			l23.114,13.344c7.489,4.326,17.082,1.762,21.409-5.734l28.045-48.576C262.509,165.701,259.94,156.115,252.444,151.787z
			 M130.141,186.105c-30.022,0-54.448-24.426-54.448-54.449c0-30.023,24.426-54.449,54.448-54.449
			c30.023,0,54.448,24.426,54.448,54.449C184.589,161.679,160.164,186.105,130.141,186.105z"/>
	</g>
</g>
<g>
</g>
<g>
</g>
<g>
</g>
<g>
</g>
<g>
</g>
<g>
</g>
<g>
</g>
<g>
</g>
<g>
</g>
<g>
</g>
<g>
</g>
<g>
</g>
<g>
</g>
<g>
</g>
<g>
</g>
</svg>
