<svg xmlns="http://www.w3.org/2000/svg" viewBox="0 0 24 24">
  <path d="M10.578125 2.0117188C10.295248 2.0259294 10.009872 2.0549755 9.7226562 2.0996094C5.484854 2.7595856 2.6705068 6.7157602 3.0390625 10.939453C3.196027 12.75015 3.9004195 13.828516 4.5214844 14.724609C5.2976803 15.845892 6 16.764002 6 19.240234L6 22L15 22L15 19L17 19C18.093063 19 19 18.093063 19 17L19 14.021484L20.226562 13.503906C20.787149 13.26787 21.046453 12.41535 20.724609 11.908203L18.947266 9.1191406L18.947266 9.1171875C18.488723 4.9315152 14.821286 1.7985584 10.578125 2.0117188 z M 10 4.0800781L10 9.2714844 A 2 2 0 0 0 9 11 A 2 2 0 0 0 11 13 A 2 2 0 0 0 11.517578 12.931641L13.003906 14.417969 A 1.5 1.5 0 0 0 13 14.5 A 1.5 1.5 0 0 0 14.5 16 A 1.5 1.5 0 0 0 16 14.5 A 1.5 1.5 0 0 0 14.5 13 A 1.5 1.5 0 0 0 14.417969 13.003906L12.929688 11.515625 A 2 2 0 0 0 13 11 A 2 2 0 0 0 12 9.2695312L12 4.0800781C14.621037 4.5093295 16.66144 6.6198915 16.958984 9.3359375L17.009766 9.7988281L17.259766 10.193359L18.460938 12.078125L17 12.695312L17 13.357422L17 17L13 17L13 20L8 20L8 19.240234C8 16.328466 6.9418197 14.706654 6.1660156 13.585938C5.5450805 12.69003 5.1542855 12.186881 5.03125 10.767578L5.03125 10.765625C4.748753 7.5281737 6.8454861 4.5887813 10 4.0800781 z" fill="#FFFFFF" />
</svg>