<svg xmlns="http://www.w3.org/2000/svg" viewBox="0 0 30 30">
  <path d="M19 5 A 2 2 0 0 0 17.269531 6L4 6 A 1.0001 1.0001 0 1 0 4 8L17.271484 8 A 2 2 0 0 0 19 9 A 2 2 0 0 0 21 7 A 2 2 0 0 0 19 5 z M 22.859375 6C22.942375 6.321 23 6.653 23 7C23 7.347 22.942375 7.679 22.859375 8L26 8 A 1 1 0 0 0 27 7 A 1 1 0 0 0 26 6L22.859375 6 z M 9 13 A 2 2 0 0 0 7.2714844 14L4 14 A 1.0001 1.0001 0 1 0 4 16L7.2695312 16 A 2 2 0 0 0 9 17 A 2 2 0 0 0 11 15 A 2 2 0 0 0 9 13 z M 12.859375 14C12.942375 14.321 13 14.653 13 15C13 15.347 12.942375 15.679 12.859375 16L26 16 A 1 1 0 0 0 27 15 A 1 1 0 0 0 26 14L12.859375 14 z M 15 21 A 2 2 0 0 0 13.269531 22L4 22 A 1.0001 1.0001 0 1 0 4 24L13.271484 24 A 2 2 0 0 0 15 25 A 2 2 0 0 0 17 23 A 2 2 0 0 0 15 21 z M 18.859375 22C18.942375 22.321 19 22.653 19 23C19 23.347 18.942375 23.679 18.859375 24L26 24 A 1 1 0 0 0 27 23 A 1 1 0 0 0 26 22L18.859375 22 z" fill="#FFFFFF" />
</svg>