<svg xmlns="http://www.w3.org/2000/svg" viewBox="0 0 30 30">
  <path d="M19.779297 1C19.524297 1 19.30925 1.1923125 19.28125 1.4453125L19.240234 1.8242188C19.193234 2.2472188 18.88275 2.5895 18.46875 2.6875C18.36575 2.7125 18.261156 2.7375781 18.160156 2.7675781C17.754156 2.8855781 17.318359 2.7452969 17.068359 2.4042969L16.84375 2.0996094C16.69275 1.8946094 16.412406 1.8358906 16.191406 1.9628906L15.808594 2.1835938C15.587594 2.3105937 15.497609 2.5834062 15.599609 2.8164062L15.755859 3.1699219C15.925859 3.5579219 15.828484 4.0068281 15.521484 4.2988281C15.445484 4.3708281 15.371828 4.4454844 15.298828 4.5214844C15.005828 4.8284844 14.556969 4.9268594 14.167969 4.7558594L13.814453 4.6015625C13.581453 4.4995625 13.308641 4.5875937 13.181641 4.8085938L12.960938 5.1914062C12.833937 5.4124063 12.892656 5.6947031 13.097656 5.8457031L13.402344 6.0703125C13.743344 6.3203125 13.883625 6.7561094 13.765625 7.1621094C13.736625 7.2631094 13.710547 7.36575 13.685547 7.46875C13.587547 7.88275 13.245266 8.1932344 12.822266 8.2402344L12.443359 8.2832031C12.191359 8.3102031 12 8.5242969 12 8.7792969L12 9.2207031C12 9.4757031 12.192312 9.69075 12.445312 9.71875L12.824219 9.7597656C13.247219 9.8067656 13.587547 10.11725 13.685547 10.53125C13.710547 10.63425 13.737578 10.738844 13.767578 10.839844C13.885578 11.245844 13.745297 11.681641 13.404297 11.931641L13.097656 12.15625C12.892656 12.30725 12.833937 12.587594 12.960938 12.808594L13.181641 13.191406C13.308641 13.412406 13.583406 13.502391 13.816406 13.400391L14.169922 13.244141C14.557922 13.074141 15.006828 13.171516 15.298828 13.478516C15.370828 13.554516 15.445484 13.628172 15.521484 13.701172C15.828484 13.994172 15.926859 14.443031 15.755859 14.832031L15.599609 15.185547C15.497609 15.418547 15.587594 15.690359 15.808594 15.818359L16.191406 16.039062C16.412406 16.166062 16.69275 16.107344 16.84375 15.902344L17.068359 15.597656C17.318359 15.256656 17.754156 15.116375 18.160156 15.234375C18.261156 15.263375 18.36575 15.289453 18.46875 15.314453C18.88275 15.412453 19.193234 15.754734 19.240234 16.177734L19.28125 16.556641C19.30925 16.808641 19.524297 17 19.779297 17L20.220703 17C20.475703 17 20.69075 16.807688 20.71875 16.554688L20.759766 16.175781C20.806766 15.752781 21.11725 15.412453 21.53125 15.314453C21.63425 15.289453 21.738844 15.261422 21.839844 15.232422C22.245844 15.114422 22.681641 15.254703 22.931641 15.595703L23.15625 15.902344C23.30725 16.107344 23.587594 16.166062 23.808594 16.039062L24.191406 15.818359C24.412406 15.691359 24.502391 15.416594 24.400391 15.183594L24.244141 14.830078C24.074141 14.442078 24.171516 13.994172 24.478516 13.701172C24.554516 13.629172 24.628172 13.554516 24.701172 13.478516C24.994172 13.171516 25.442078 13.073141 25.830078 13.244141L26.183594 13.398438C26.416594 13.500438 26.690359 13.412406 26.818359 13.191406L27.039062 12.808594C27.166062 12.587594 27.107344 12.305297 26.902344 12.154297L26.595703 11.929688C26.254703 11.679688 26.114422 11.243891 26.232422 10.837891C26.261422 10.736891 26.289453 10.63425 26.314453 10.53125C26.412453 10.11725 26.752781 9.8067656 27.175781 9.7597656L27.556641 9.7167969C27.808641 9.6897969 28 9.4757031 28 9.2207031L28 8.7792969C28 8.5242969 27.807688 8.30925 27.554688 8.28125L27.175781 8.2402344C26.752781 8.1932344 26.4105 7.88275 26.3125 7.46875C26.2875 7.36575 26.262422 7.2611563 26.232422 7.1601562C26.114422 6.7541563 26.254703 6.3183594 26.595703 6.0683594L26.900391 5.84375C27.105391 5.69275 27.164109 5.4124062 27.037109 5.1914062L26.816406 4.8085938C26.689406 4.5875937 26.416594 4.4976094 26.183594 4.5996094L25.830078 4.7558594C25.442078 4.9258594 24.992219 4.8284844 24.699219 4.5214844C24.627219 4.4454844 24.552563 4.3718281 24.476562 4.2988281C24.169563 4.0058281 24.071188 3.5579219 24.242188 3.1699219L24.398438 2.8164062C24.500438 2.5834062 24.410453 2.3096406 24.189453 2.1816406L23.806641 1.9609375C23.585641 1.8339375 23.305297 1.8926562 23.154297 2.0976562L22.929688 2.4042969C22.679688 2.7452969 22.243891 2.8855781 21.837891 2.7675781C21.736891 2.7385781 21.632297 2.7105469 21.529297 2.6855469C21.115297 2.5875469 20.804813 2.2472187 20.757812 1.8242188L20.716797 1.4453125C20.690797 1.1923125 20.475703 1 20.220703 1L19.779297 1 z M 20 5C22.209 5 24 6.791 24 9C24 11.209 22.209 13 20 13C17.791 13 16 11.209 16 9C16 6.791 17.791 5 20 5 z M 20 7C18.895 7 18 7.895 18 9C18 10.105 18.895 11 20 11C21.105 11 22 10.105 22 9C22 7.895 21.105 7 20 7 z M 8 15 A 3 3 0 0 0 6.8828125 15.216797L2 17L2 25L6.2207031 23.166016C6.7187031 22.950016 7.2821563 22.942438 7.7851562 23.148438L16.849609 26.851562C16.849609 26.851562 16.853494 26.851563 16.853516 26.851562 A 1.5 1.5 0 0 0 17.5 27 A 1.5 1.5 0 0 0 18.238281 26.802734C18.238413 26.802691 18.244057 26.802776 18.244141 26.802734L27.230469 21.810547L27.228516 21.808594 A 1.5 1.5 0 0 0 28 20.5 A 1.5 1.5 0 0 0 26.5 19 A 1.5 1.5 0 0 0 25.863281 19.144531L25.863281 19.142578L19 22L17.5 22 A 1.5 1.5 0 0 0 19 20.5 A 1.5 1.5 0 0 0 17.964844 19.074219L17.964844 19.072266L9.2714844 15.28125L9.2597656 15.28125 A 3 3 0 0 0 8 15 z" fill="#FFFFFF" />
</svg>