<svg xmlns="http://www.w3.org/2000/svg" viewBox="0 0 128 128">
  <path d="M124,98h-7V31c0-7.2-5.8-13-13-13H24c-7.2,0-13,5.8-13,13v67H4c-1.7,0-3,1.3-3,3v3c0,7.2,5.8,13,13,13h100c7.2,0,13-5.8,13-13v-3C127,99.3,125.7,98,124,98z M80.1,52.2c-1.2-1.1-1.3-3-0.2-4.2c1.1-1.2,3-1.3,4.2-0.2l12.1,11.1c0.6,0.6,1,1.4,1,2.2s-0.4,1.7-1,2.2L84.1,74.3c-0.6,0.5-1.3,0.8-2,0.8c-0.8,0-1.6-0.3-2.2-1c-1.1-1.2-1-3.1,0.2-4.2l9.6-8.8L80.1,52.2z M52.9,82.1l16.5-44.4c0.6-1.6,2.3-2.3,3.9-1.8c1.6,0.6,2.3,2.3,1.8,3.9L58.5,84.2c-0.5,1.3-1.8,2.1-3.1,1.9c-0.3,0-0.5-0.1-0.8-0.2C53.1,85.4,52.3,83.7,52.9,82.1z M31.8,58.8l12.1-11.1c1.2-1.1,3.1-1,4.2,0.2s1,3.1-0.2,4.2L38.3,61l9.6,8.8c1.2,1.1,1.3,3,0.2,4.2c-0.6,0.7-1.4,1-2.2,1c-0.7,0-1.4-0.2-2-0.8L31.8,63.2c-0.6-0.6-1-1.4-1-2.2S31.2,59.3,31.8,58.8z M114,111H14c-3.9,0-7-3.1-7-7h114C121,107.9,117.9,111,114,111z" fill="#FFFFFF" />
</svg>