<svg xmlns="http://www.w3.org/2000/svg" viewBox="0 0 24 24">
  <path d="M20 0C17.791 0 16 1.791 16 4C16 4.408 16.079359 4.7950156 16.193359 5.1660156L13.5 7.859375C12.848 8.511375 12.848 9.5687031 13.5 10.220703L13.800781 10.521484C14.127781 10.848484 14.554422 11.011719 14.982422 11.011719C15.409422 11.011719 15.836109 10.847484 16.162109 10.521484L18.867188 7.8183594C19.229187 7.9253594 19.604 8 20 8C22.209 8 24 6.209 24 4C24 3.654 23.954141 3.319 23.869141 3C23.810141 2.779 23.485 2.515 23 3L21.589844 4.4101562C21.226844 4.7731562 20.693219 4.9124844 20.199219 4.7714844C19.729219 4.6374844 19.362516 4.2707812 19.228516 3.8007812C19.087516 3.3067813 19.225844 2.7731563 19.589844 2.4101562L21 1C21.514 0.486 21.221 0.18985937 21 0.13085938C20.681 0.045859375 20.346 0 20 0 z M 4 4C2.895 4 2 4.895 2 6L2 16C2 16.725545 2.3889893 17.354515 2.9667969 17.705078L1 17.705078C0.448 17.705078 0 18.153078 0 18.705078C0 19.257078 0.448 19.705078 1 19.705078L23 19.705078C23.552 19.705078 24 19.257078 24 18.705078C24 18.153078 23.552 17.705078 23 17.705078L21.033203 17.705078C21.611011 17.354515 22 16.725545 22 16L22 11C22 10.448 21.552 10 21 10C20.448 10 20 10.448 20 11L20.001953 16L4 16L4 6L12 6C12.552 6 13 5.552 13 5C13 4.448 12.552 4 12 4L4 4 z" fill="#FFFFFF" />
</svg>