<svg xmlns="http://www.w3.org/2000/svg" viewBox="0 0 26 26">
  <path d="M15.3125 4C15.011719 4 14.695313 4.199219 14.59375 4.5L9 21.3125C8.898438 21.710938 9.199219 22 9.5 22L10.40625 22C10.707031 22 10.992188 21.800781 11.09375 21.5L16.6875 4.6875C16.789063 4.289063 16.488281 4 16.1875 4 Z M 5.0625 7C4.925781 7.023438 4.789063 7.085938 4.6875 7.1875L0.09375 12.6875C-0.0078125 12.886719 -0.0078125 13.113281 0.09375 13.3125L4.6875 18.8125C4.886719 19.011719 5.199219 19.105469 5.5 18.90625L6.09375 18.40625C6.292969 18.207031 6.386719 17.792969 6.1875 17.59375L2.3125 13L6.09375 8.40625C6.292969 8.207031 6.300781 7.792969 6 7.59375L5.5 7.09375C5.351563 6.992188 5.199219 6.976563 5.0625 7 Z M 20.71875 7C20.644531 7.015625 20.574219 7.042969 20.5 7.09375L19.90625 7.59375C19.707031 7.792969 19.613281 8.207031 19.8125 8.40625L23.59375 13L19.8125 17.59375C19.613281 17.792969 19.605469 18.207031 19.90625 18.40625L20.5 18.90625C20.699219 19.105469 21.113281 19.113281 21.3125 18.8125L25.90625 13.3125C26.007813 13.113281 26.007813 12.886719 25.90625 12.6875L21.3125 7.1875C21.164063 7.039063 20.9375 6.953125 20.71875 7Z" fill="#FFFFFF" />
</svg>